<svg width="24" height="24" viewBox="0 0 24 24" fill="none" xmlns="http://www.w3.org/2000/svg">
<path d="M11.94 19.2C12.36 19.2 12.7152 19.0548 13.0056 18.7644C13.2952 18.4748 13.44 18.12 13.44 17.7C13.44 17.28 13.2952 16.9252 13.0056 16.6356C12.7152 16.3452 12.36 16.2 11.94 16.2C11.52 16.2 11.1648 16.3452 10.8744 16.6356C10.5848 16.9252 10.44 17.28 10.44 17.7C10.44 18.12 10.5848 18.4748 10.8744 18.7644C11.1648 19.0548 11.52 19.2 11.94 19.2ZM12.12 6.84C12.68 6.84 13.13 6.9948 13.47 7.3044C13.81 7.6148 13.98 8.02 13.98 8.52C13.98 8.86 13.8652 9.2048 13.6356 9.5544C13.4052 9.9048 13.08 10.27 12.66 10.65C12.06 11.17 11.62 11.67 11.34 12.15C11.06 12.63 10.92 13.11 10.92 13.59C10.92 13.87 11.0252 14.1048 11.2356 14.2944C11.4452 14.4848 11.69 14.58 11.97 14.58C12.25 14.58 12.5 14.48 12.72 14.28C12.94 14.08 13.08 13.83 13.14 13.53C13.2 13.19 13.3352 12.8752 13.5456 12.5856C13.7552 12.2952 14.1 11.92 14.58 11.46C15.2 10.88 15.6352 10.35 15.8856 9.87C16.1352 9.39 16.26 8.86 16.26 8.28C16.26 7.26 15.8752 6.4248 15.1056 5.7744C14.3352 5.1248 13.34 4.8 12.12 4.8C11.28 4.8 10.5352 4.96 9.8856 5.28C9.2352 5.6 8.73 6.09 8.37 6.75C8.23 7.01 8.18 7.2648 8.22 7.5144C8.26 7.7648 8.4 7.97 8.64 8.13C8.9 8.29 9.1852 8.34 9.4956 8.28C9.8052 8.22 10.06 8.05 10.26 7.77C10.48 7.47 10.7452 7.24 11.0556 7.08C11.3652 6.92 11.72 6.84 12.12 6.84ZM12 24C10.36 24 8.81 23.6848 7.35 23.0544C5.89 22.4248 4.6152 21.57 3.5256 20.49C2.4352 19.41 1.5752 18.14 0.9456 16.68C0.3152 15.22 0 13.66 0 12C0 10.34 0.3152 8.78 0.9456 7.32C1.5752 5.86 2.4352 4.59 3.5256 3.51C4.6152 2.43 5.89 1.5748 7.35 0.9444C8.81 0.3148 10.36 0 12 0C13.68 0 15.25 0.3148 16.71 0.9444C18.17 1.5748 19.44 2.43 20.52 3.51C21.6 4.59 22.45 5.86 23.07 7.32C23.69 8.78 24 10.34 24 12C24 13.66 23.69 15.22 23.07 16.68C22.45 18.14 21.6 19.41 20.52 20.49C19.44 21.57 18.17 22.4248 16.71 23.0544C15.25 23.6848 13.68 24 12 24Z" fill="#7C858E"/>
</svg>
