<svg width="25" height="24" viewBox="0 0 25 24" fill="none" xmlns="http://www.w3.org/2000/svg">
<path d="M13.3918 0.392737C13.2793 0.269038 13.1423 0.170202 12.9894 0.10257C12.8365 0.0349368 12.6712 0 12.5041 0C12.3369 0 12.1716 0.0349368 12.0187 0.10257C11.8659 0.170202 11.7288 0.269038 11.6164 0.392737L0.820063 12.3886C0.660862 12.5603 0.555366 12.7748 0.516579 13.0056C0.477792 13.2365 0.50741 13.4737 0.601781 13.6879C0.696152 13.9022 0.851152 14.0841 1.04767 14.2114C1.2442 14.3386 1.47365 14.4055 1.70776 14.4039H4.10694V22.8011C4.10694 23.1192 4.23332 23.4243 4.45829 23.6493C4.68326 23.8743 4.98838 24.0007 5.30653 24.0007H19.7016C20.0198 24.0007 20.3249 23.8743 20.5498 23.6493C20.7748 23.4243 20.9012 23.1192 20.9012 22.8011V14.4039H23.3004C23.6185 14.4039 23.9236 14.2776 24.1486 14.0526C24.3736 13.8276 24.5 13.5225 24.5 13.2044C24.5022 12.9029 24.3908 12.6117 24.1881 12.3886L13.3918 0.392737Z" fill="#7C858E"/>
</svg>
