<svg width="22" height="18" viewBox="0 0 22 18" fill="none" xmlns="http://www.w3.org/2000/svg">
<path d="M5.72727 8.18182H13.9091V0.818182C13.9091 0.601187 13.8229 0.393079 13.6695 0.23964C13.516 0.0862012 13.3079 0 13.0909 0H0.818182C0.601187 0 0.393079 0.0862012 0.23964 0.23964C0.086201 0.393079 0 0.601187 0 0.818182V17.1818C0 17.3988 0.086201 17.6069 0.23964 17.7604C0.393079 17.9138 0.601187 18 0.818182 18H13.0909C13.3079 18 13.516 17.9138 13.6695 17.7604C13.8229 17.6069 13.9091 17.3988 13.9091 17.1818V9.81818H5.72727V8.18182ZM21.0329 8.42165L16.3636 3.75187L15.2064 4.90909L18.4791 8.18182H13.9091V9.81818H18.4791L15.2064 13.0909L16.3636 14.2481L21.0329 9.57835C21.1862 9.42493 21.2723 9.2169 21.2723 9C21.2723 8.7831 21.1862 8.57507 21.0329 8.42165Z" fill="#6E7780"/>
</svg>
