<svg width="12" height="14" viewBox="0 0 12 14" fill="none" xmlns="http://www.w3.org/2000/svg">
<path d="M6.00001 0.333344C3.23867 0.333344 1.00001 2.57201 1.00001 5.33334V8.16201L0.0653403 10.2807C0.0149925 10.3948 -0.00608387 10.5197 0.0040203 10.6441C0.0141245 10.7684 0.0550899 10.8883 0.123206 10.9928C0.191323 11.0974 0.284438 11.1832 0.394118 11.2427C0.503799 11.3021 0.62658 11.3333 0.75134 11.3333H11.2487C11.3734 11.3333 11.4962 11.3021 11.6059 11.2427C11.7156 11.1832 11.8087 11.0974 11.8768 10.9928C11.9449 10.8883 11.9859 10.7684 11.996 10.6441C12.0061 10.5197 11.985 10.3948 11.9347 10.2807L11 8.16234V5.33334C11 2.57201 8.76134 0.333344 6.00001 0.333344ZM6.00001 13.6667C5.52735 13.6666 5.06998 13.4992 4.70896 13.1941C4.34793 12.8891 4.10658 12.466 4.02767 12H7.97234C7.89343 12.466 7.65208 12.8891 7.29106 13.1941C6.93004 13.4992 6.47266 13.6666 6.00001 13.6667Z" fill="#0D161F"/>
</svg>
