<svg width="22" height="24" viewBox="0 0 22 24" fill="none" xmlns="http://www.w3.org/2000/svg">
<path d="M10.8026 13.5007V3.00067C8.51812 3.00108 6.29615 3.7465 4.47365 5.12386C2.65115 6.50121 1.32756 8.43537 0.703647 10.6329C0.0797302 12.8305 0.189525 15.1716 1.01638 17.3012C1.84323 19.4307 3.34203 21.2325 5.28543 22.4332C7.22884 23.634 9.51083 24.1682 11.7853 23.9548C14.0597 23.7414 16.2025 22.792 17.8887 21.2508C19.5748 19.7095 20.7123 17.6604 21.1286 15.4142C21.5449 13.168 21.2173 10.8473 20.1956 8.80417L10.8026 13.5007ZM21.6956 5.80417C20.8234 4.05986 19.4827 2.59295 17.8236 1.56789C16.1645 0.542835 14.2527 0.000147929 12.3026 0.000671766V10.5007L21.6956 5.80417Z" fill="#7C858E"/>
</svg>
