<svg width="18" height="24" viewBox="0 0 18 24" fill="none" xmlns="http://www.w3.org/2000/svg">
<path d="M17.2554 4.5H2.90044C2.70904 4.49729 2.52018 4.45584 2.34523 4.37815C2.17029 4.30046 2.01289 4.18815 1.88254 4.04798C1.75218 3.90781 1.65156 3.74269 1.58675 3.56258C1.52194 3.38246 1.49428 3.19109 1.50544 3C1.50451 2.61972 1.64805 2.25327 1.90703 1.9748C2.16601 1.69633 2.52109 1.52662 2.90044 1.5H17.2554C17.4544 1.5 17.6451 1.42098 17.7858 1.28033C17.9264 1.13968 18.0054 0.948912 18.0054 0.75C18.0054 0.551088 17.9264 0.360322 17.7858 0.21967C17.6451 0.0790176 17.4544 0 17.2554 0H2.90044C2.12313 0.0272224 1.38678 0.355271 0.846679 0.914956C0.306582 1.47464 0.00496528 2.22221 0.00544182 3C-0.00181394 3.12239 -0.00181394 3.24511 0.00544182 3.3675C-0.00178429 3.42728 -0.00178429 3.48772 0.00544182 3.5475V21C0.00496528 21.7778 0.306582 22.5254 0.846679 23.085C1.38678 23.6447 2.12313 23.9728 2.90044 24H17.2554C17.4544 24 17.6451 23.921 17.7858 23.7803C17.9264 23.6397 18.0054 23.4489 18.0054 23.25V5.3025C18.0059 5.09845 17.9286 4.90191 17.7893 4.75283C17.6499 4.60375 17.459 4.51335 17.2554 4.5Z" fill="#7C858E"/>
</svg>
