<svg width="22" height="19" viewBox="0 0 22 19" fill="none" xmlns="http://www.w3.org/2000/svg">
<path fill-rule="evenodd" clip-rule="evenodd" d="M14.9403 12.5212C15.3404 12.1463 15.9891 12.1463 16.3892 12.5212L20.9996 16.8412C21.3997 17.2161 21.3997 17.8239 20.9996 18.1988C20.5995 18.5737 19.9508 18.5737 19.5507 18.1988L14.9403 13.8788C14.5401 13.5039 14.5401 12.8961 14.9403 12.5212Z" fill="#7C858E"/>
<path fill-rule="evenodd" clip-rule="evenodd" d="M9.90167 1.92C6.43591 1.92 3.62635 4.55257 3.62635 7.8C3.62635 8.33019 3.16765 8.76 2.60181 8.76C2.03597 8.76 1.57727 8.33019 1.57727 7.8C1.57727 3.49218 5.30423 0 9.90167 0C14.4991 0 18.2261 3.49218 18.2261 7.8C18.2261 12.1078 14.4991 15.6 9.90167 15.6C9.33583 15.6 8.87712 15.1702 8.87712 14.64C8.87712 14.1098 9.33583 13.68 9.90167 13.68C13.3674 13.68 16.177 11.0474 16.177 7.8C16.177 4.55257 13.3674 1.92 9.90167 1.92Z" fill="#7C858E"/>
<path fill-rule="evenodd" clip-rule="evenodd" d="M0.0640594 13.9401C-0.021395 14.0261 -0.0213474 14.1594 0.0641679 14.2454L1.35569 15.544C1.45027 15.6391 1.61111 15.639 1.70561 15.5439L4.56109 12.6679C4.65559 12.5727 4.81642 12.5727 4.91101 12.6678L6.71168 14.4784C6.81 14.5772 6.97865 14.5726 7.07066 14.4686L12.0728 8.81168C12.1495 8.72498 12.1456 8.59843 12.0636 8.51606L10.8208 7.26641C10.7225 7.16756 10.5539 7.17215 10.4619 7.27616L7.02145 11.1648C6.92943 11.2689 6.76082 11.2734 6.66251 11.1746L4.91036 9.41283C4.81579 9.31774 4.65498 9.31779 4.56047 9.41294L0.0640594 13.9401Z" fill="#7C858E"/>
</svg>
