<svg width="24" height="24" viewBox="0 0 24 24" fill="none" xmlns="http://www.w3.org/2000/svg">
<path d="M13.827 24H9.45903C9.18534 24 8.91987 23.9065 8.70663 23.735C8.49339 23.5634 8.34519 23.3241 8.28663 23.0568L7.79822 20.796C7.1467 20.5105 6.52891 20.1535 5.95623 19.7316L3.75183 20.4336C3.4909 20.5168 3.20936 20.5083 2.95397 20.4094C2.69857 20.3105 2.48469 20.1272 2.34783 19.89L0.159025 16.1088C0.0235997 15.8714 -0.0272357 15.595 0.0148361 15.3249C0.0569079 15.0548 0.189396 14.807 0.390625 14.622L2.10063 13.062C2.02286 12.3553 2.02286 11.6423 2.10063 10.9356L0.390625 9.3792C0.189111 9.19413 0.0564427 8.94609 0.014364 8.67574C-0.0277147 8.40539 0.0232924 8.12876 0.159025 7.8912L2.34303 4.1076C2.47989 3.87038 2.69377 3.68711 2.94917 3.58823C3.20457 3.48934 3.4861 3.48079 3.74703 3.564L5.95143 4.266C6.24423 4.05 6.54903 3.8484 6.86343 3.666C7.16703 3.4956 7.47902 3.3408 7.79822 3.2028L8.28783 0.9444C8.34611 0.677037 8.49402 0.437625 8.70704 0.265859C8.92006 0.0940918 9.18538 0.000287959 9.45903 0H13.827C14.1007 0.000287959 14.366 0.0940918 14.579 0.265859C14.792 0.437625 14.9399 0.677037 14.9982 0.9444L15.4926 3.204C16.1433 3.49112 16.7609 3.84801 17.3346 4.2684L19.5402 3.5664C19.801 3.4835 20.0823 3.4922 20.3374 3.59107C20.5925 3.68994 20.8062 3.87304 20.943 4.11L23.127 7.8936C23.4054 8.382 23.3094 9 22.8954 9.3804L21.1854 10.9404C21.2632 11.6471 21.2632 12.3601 21.1854 13.0668L22.8954 14.6268C23.3094 15.0084 23.4054 15.6252 23.127 16.1136L20.943 19.8972C20.8062 20.1344 20.5923 20.3177 20.3369 20.4166C20.0815 20.5155 19.7999 20.524 19.539 20.4408L17.3346 19.7388C16.7624 20.1604 16.145 20.517 15.4938 20.802L14.9982 23.0568C14.9397 23.3239 14.7917 23.5631 14.5787 23.7346C14.3657 23.9061 14.1005 23.9998 13.827 24ZM11.6382 7.2C10.3652 7.2 9.14429 7.70571 8.24411 8.60589C7.34394 9.50606 6.83822 10.727 6.83822 12C6.83822 13.273 7.34394 14.4939 8.24411 15.3941C9.14429 16.2943 10.3652 16.8 11.6382 16.8C12.9113 16.8 14.1322 16.2943 15.0323 15.3941C15.9325 14.4939 16.4382 13.273 16.4382 12C16.4382 10.727 15.9325 9.50606 15.0323 8.60589C14.1322 7.70571 12.9113 7.2 11.6382 7.2Z" fill="#7C858E"/>
</svg>
