<svg width="25" height="17" viewBox="0 0 25 17" fill="none" xmlns="http://www.w3.org/2000/svg">
<path d="M12.5 0.637024C7.04545 0.637024 2.38727 4.02975 0.5 8.81884C2.38727 13.6079 7.04545 17.0007 12.5 17.0007C17.9545 17.0007 22.6127 13.6079 24.5 8.81884C22.6127 4.02975 17.9545 0.637024 12.5 0.637024ZM12.5 14.2734C9.48909 14.2734 7.04545 11.8298 7.04545 8.81884C7.04545 5.80793 9.48909 3.3643 12.5 3.3643C15.5109 3.3643 17.9545 5.80793 17.9545 8.81884C17.9545 11.8298 15.5109 14.2734 12.5 14.2734ZM12.5 5.54611C10.6891 5.54611 9.22727 7.00793 9.22727 8.81884C9.22727 10.6298 10.6891 12.0916 12.5 12.0916C14.3109 12.0916 15.7727 10.6298 15.7727 8.81884C15.7727 7.00793 14.3109 5.54611 12.5 5.54611Z" fill="#7C858E"/>
</svg>
